<svg xmlns="http://www.w3.org/2000/svg" width="682" height="497" stroke="#000" stroke-linecap="round" stroke-linejoin="round" fill="#fff" fill-rule="evenodd">
    <path d="M93.41 2.5q-100 35-90 140m130-110q-100 35-90 140M587.5 2.5q100 35 90 140m-130-110q100 35 90 140" fill="none" stroke-width="5" stroke="#686868"/>
    <g stroke="none">
        <g fill="#f0898c">
            <path d="M557.536 110.313c-33.9435-42.0253-92.4133-62.6563-158.864-16.8605-13.636 9.3975-30.573 26.2353-46.7367 42.399q-8.0818 271.548-11.4522 356.8414c16.6246 7.1623 84.5116-33.2466 144.3168-83.3537 93.7487-80.818 135.774-210.1265 72.736-299.0262z"/>
            <path d="M137.283 107.0802c38.7926-35.56 101.8305-54.956 169.7175-14.5472 13.636 9.3976 32.3272 24.2454 44.9347 43.48q6.9265 272.245-11.4522 356.6798c-127.2312-34.863-314.7287-257.9203-212.8982-374.298"/>
        </g>
        <path d="M193.8555 79.602c-80.818 248.919 196.8723 381.4604 277.6902 339.435-48.4907 43.6416-106.3563 71.1197-123.813 74.3524-27.7636-.4105-53.6828-17.6876-79.5248-35.5598-27.715-19.1677-59.7177-43.144-82.4342-74.3525-35.56-38.7926-67.1038-90.235-79.848-138.6835-3.912-14.872-4.7528-29.4238-6.4654-43.3183.687-60.1367 34.8208-110.23 94.3953-126.3992l1.5355.89" fill="#ed7173"/>
    </g>
    <path fill="none" d="M351.612 138.4375c-12.2844-32.9737-89.8695-87.93-160.9892-62.068-203.66 77.585-25.8618 349.1332 135.774 412.171 18.1032 6.7887 24.407 5.819 39.4392-.3233C672.2973 334.9866 607.643 82.8348 491.2653 69.904c-16.1636-.9698-72.736-12.931-139.6533 68.5335v.0001" stroke-width="5" stroke="#bc2d31"/>
    <path d="M439.542 97.382q7.7585-2.9094 18.7497-3.556 63.6845-6.1422 96.0116 48.814 8.0818 32.327-13.254 8.7283-32.004-42.6718-98.92-45.9045-20.366-1.6164-2.586-8.0818h0m115.7307 95.365q2.5862-10.9912 8.7283-11.3145 9.375-.6465 2.9095 33.297-2.5862 11.6377-9.0516 7.112-1.293-.6465-3.2328-7.112-1.293-12.93.6466-21.9825z" stroke="none" fill="#f2a0af"/>
</svg>