<svg xmlns="http://www.w3.org/2000/svg" xmlns:xlink="http://www.w3.org/1999/xlink" width="559" height="714" stroke="#000" stroke-linecap="round" stroke-linejoin="round" fill="#fff" fill-rule="evenodd">
    <style>
        <![CDATA[.B{fill:none}.C{stroke:#686868}.D{stroke-width:5}.E{stroke:none}.F{fill:#f7d0b3}.G{fill:#cf957e}.H{fill:#d1d9e6}]]>
    </style>
    <g class="E">
        <use xlink:href="#B"/>
        <path d="M208.5243 181.5q0 0 0 0 0 0 0 0 0 0 0 0-7.1057-3.241-11-8-9.3112-11.3782-7-22 2.5-19.5 12-45 15.5 27.5 52 38.5 76.756 16.2802 138.5 10 75.865-7.7166 112.5-50 6 10 12 39 4 22.5-16 35.5l-293 2" fill="#c6d3e2"/>
    </g>
    <use xlink:href="#B" x="-1.1383" y="2" class="B C D"/>
    <g class="E">
        <path d="M529.5244 635q-.5 21.5-5 27.5-22.5 21-52.5 25 5-15 7.5-30 26.5-8.5 50-22.5z" class="G"/>
        <path d="M519.7744 711.5q1.25-5.75 7.25-52.5-21 20-53.5 27.5-4.5 17-7.5 25" class="F"/>
    </g>
    <path d="M529.5244 632.5q-6 54.5-10 77.5" class="B C D"/>
    <path d="M203.7744 604.75q8.25 6.25 10.25 14.5-9.75 2.25-16.75-1 1.25-5.25 5.5-13z" class="E H"/>
    <path d="M195.5244 618.5q7 4 22 2" class="B C D"/>
    <g class="E">
        <path d="M479.5244 657.5q35-12.5 75-42.5-17.5-130-35-142.5 0-12.5-117.5-37.5 0-5-80-5-75 17.5-127.5 30-27.5 37.5-57.5 105 62.5 17.5 80 57.5 112.5 32.5 262.5 35z"/>
        <path d="M297.5244 435q-18 5-37 8 16 11 29 11.5m47.5 33q0 0 0 0 0 0 0 0-7.5 7-22.5 21 16-8 37-9 18 1 33 7-13-18-20-19 0 0 0 0-4 3-12 5-10-2-15.5-5m159.5 163v-88l-17 94zm-31 61q6.5-10.5 20-93-151 51.5-269-1 12.9375 78.5 20.9375 94" class="H"/>
    </g>
    <g class="B C D">
        <path d="M479.5244 657.5q45-17.5 75-42.5-15-137.5-42.5-150-25-10-112.5-32.5-92.5 2.5-95 2.5-77.5 12.5-112.5 27.5-32.5 50-50 102.5 45.5 10.5 75.5 55.5m-15.5-100.5q25 165 35 190m265-185q-22.5 150-37.5 185"/>
        <circle cx="353.0244" cy="512" r="8.5"/>
        <circle cx="353.0244" cy="677" r="8.5"/>
        <circle cx="353.0244" cy="594" r="8.5"/>
    </g>
    <g class="E">
        <path d="M142.0244 510q10-60-25-75-25.5-24.5-30-27.5-4.5 16 10 35-43.5-26-67.5-32.5-9-5.5-5 5-7.5 0-7.5-2.5-15.5-6-7.5 7.5-13.5 3.5-4 14.5-1 6 1.5 13 39.5 38 92.5 75 2.5 87.5 5 125 5 23 22.5 40 11.5 12 27.5-2.5 24-28.25 34-55.75 0-47.5-29-46.75-10-42.5-17.5-72.5z" class="F"/>
        <path d="M156.5244 570.5q34 16.5 45 33-6 11.5-13 27-10-35-29-46-2.5-8.5-3-14z" class="G"/>
    </g>
    <g class="B C D">
        <path d="M141.0244 508q21.5 85.5 23.5 122.5m-65-107q1 67.5 5 121.5 5.5 27 25 44 24.5 21.5 73.5-87m-63.5-84.5q2-10 3-35 1-33-28-50-8-7-26-25-13 7 13.5 37.5-.5 32.5 15 45m-15 35q-47.5-32.5-89.5-72.5-5.78-6.6515-6.5-17-8.5-16.5 3.5-14.5-4.5-4.5-1.5-8.5 4-1.75 8-1 4.75 1.25 6.5 2-1-8.75 9.5-3.5 48.5 22.5 69.5 36"/>
        <path d="M22.5244 413.5l51 30m-64-23l51 33m-55-20l46 30"/>
        <path d="M84.5244 436.5q-19 12-36 31m15 7q39 9 51 33"/>
    </g>
    <path d="M382.0244 422.5q30 7.5 35 67.5 0 50-52.5-2.5" class="C D"/>
    <g class="E">
        <path d="M336.0244 487.5758q-4 .5-10 7-8.5 11.5-15 15-26 10-29-8 10-76.5 36-56 3 23 16 39l2 3"/>
        <path d="M320.0244 422.5758q-2.5 11-2.75 23-11 1-23.75 6.5 6.5-26 26.5-29.5" class="H"/>
    </g>
    <path d="M322.0244 422.5758q-10 30 15 62.5-12.5 12.5-22.5 20-30.0128 21.0074-32.5-5 10-80 40-77.5" class="B C D"/>
    <g class="E">
        <path d="M323.7522 420.5q-3.2278 17-2.2278 28 26 12 59.003-17.3667-1.003-3.6333-1.003-10.6333-8.2246 2.983-20.5324 3.8667-27.4088-.2002-35.2398-3.8667" class="G"/>
        <path d="M320.5244 446.5q20 16 61-17 0 1 0 22-17 51-38 39-20-16-23-44z" class="F"/>
    </g>
    <g class="C D">
        <path d="M323.5244 419.5q27 6 56-1 4 46-17 67-11 10-26 0-22-24-16-56z" class="B"/>
        <path d="M229.5244 292.5Q202 239.3168 207.0244 195q10-115 137.5-130 105 0 117.5 60 75 67.5 12.5 167.5z" fill="#825851"/>
    </g>
    <path d="M228.6154 292.5q-22.149-35.6712-14.09-87.5 3.8016-24.4518 17.5-52.5 39.5 17 67.5 3-37-3-50-25.5 54.5-64.5 180-42.5 24.9628 6.574 31.59 37.5 75 67.5 12.5 167.5h-245" fill="#3d2a26" class="E"/>
    <g class="C D">
        <path d="M230.1154 292q-27.5245-53.1832-22.5-97.5 10-115 137.5-130 105 0 117.5 60 75 67.5 12.5 167.5z" class="B"/>
        <path d="M474.5244 277.3198q26-20.8247 29 15.6185-2.1667 43.0816-39 52.0616" class="F"/>
    </g>
    <path d="M489.5244 281.52q-28 18-20 50 29-4 20-50z" class="E G"/>
    <g class="C D">
        <path d="M491.5244 279.52q-5-2-17 17" class="B"/>
        <path d="M232.5244 274.7998q-26-20.8247-29 15.6185 2.1667 43.0816 39 52.0616" class="F"/>
    </g>
    <path d="M217.5244 281.5q28 18 20 50-29-4-20-50z" class="E G"/>
    <g class="C D">
        <path d="M215.5244 279.5q5-2 17 17" class="B"/>
        <path d="M422.0244 145q52.5 47.5 52.5 127.5 0 130-120 152.5-136-22.5-121-182.5 17-69 126-90-20 19-65 42 79-3 127.5-49.5h0" class="F"/>
        <path d="M267.0244 214.5q20.5-19.5 44-6.5m83.5-.5q26-13 43 7" class="B"/>
    </g>
    <path d="M292.5244 232q-20 2.5-23.5 29.5-1.5 30 18 36.75 24 7.25 28-24.75 5-43-22.5-41.5z" stroke="#fff"/>
    <g class="C">
        <path d="M267.0244 272.5q0-47.5 35-42.5 7.7523 1.7383 12.5 10" class="B D"/>
        <ellipse cx="297.0244" cy="266.25" fill="#686868" rx="12.5" ry="26.25" stroke-width="2"/>
    </g>
    <circle cx="305.6494" cy="254.125" stroke="#fff" r="4.375"/>
    <g class="E">
        <path d="M408.5245 231.5q35 4 27 45.5-2 9.5-8 16-16.5 14-30.5-.5-9-7-7-36.5 1-20.5 18.5-24.5h0"/>
        <ellipse cx="408.0244" cy="266.5" fill="#686868" rx="12.5" ry="26"/>
    </g>
    <circle cx="414.0244" cy="254" stroke="#fff" r="4.5"/>
    <g class="C D">
        <path d="M390.5244 240.5q8-10 19-11 30 0 30 44" class="B"/>
        <path d="M312.5244 335.5q1 25 10 43 32 49 61-3 10-26 7.5-39.25-15 4.25-31 5.25-39.5-1-47.5-6" fill="#c76f6f"/>
    </g>
    <path d="M319.5244 366.6173q2.515 8.314 6.1905 14.1086 28.889 38.2946 52.62.5038 3.6224-5.9143 6.1905-14.6124-8.7698-13.1008-28.373-15.1163-22.1826-1.5117-36.627 15.1163" fill="#ea908b" class="E"/>
    <path d="M313.0244 333.2277q1 25 10 43 32 49 61-3 10-26 7.5-39.25-15 4.25-31 5.25-39.5-1-47.5-6" class="B C D"/>
    <g class="E">
        <g fill="#eea49a">
            <ellipse cx="261.0244" cy="307.5" rx="21.5" ry="10"/>
            <ellipse cx="444.0244" cy="307.5" rx="21.5" ry="10"/>
        </g>
        <ellipse cx="352.0244" cy="317" fill="#d0967f" rx="6.5" ry="4.5"/>
    </g>
    <defs >
        <path id="B" d="M208.003 179.5q0 0 0 0 0 0 0 0 0 0 0 0-19.77-8.2932-17-35 4.8228-46.4984 43-96 41.3792-45.5 122-48 58.04 1 98 30 49.5 40 64 114 3.5 19.5-16.5 33l-293.5 2"/>
    </defs>
</svg>