<svg xmlns="http://www.w3.org/2000/svg" xmlns:xlink="http://www.w3.org/1999/xlink" width="559" height="714" stroke="#000" stroke-linecap="round" stroke-linejoin="round" fill="#fff" fill-rule="evenodd">
    <style>
        <![CDATA[.B{stroke:#686868}.C{stroke-width:5}.D{fill:none}.E{stroke:none}.F{fill:#f7d0b3}.G{fill:#cf957e}]]>
    </style>
    <g class="E">
        <path d="M27.5 635q.5 21.5 5 27.5 22.5 21 52.5 25 2.424-6-2.576-11-17-7-25-18-6-14.5-29.924-23.5" class="G"/>
        <path d="M37.25 711.5Q36 705.75 30 659q22.924 20 55.424 27.5 4.5 17 5.576 25" class="F"/>
    </g>
    <path d="M27.5 632.5q6 54.5 10 77.5" class="B C D"/>
    <g class="E">
        <path d="M415 510q-10-60 25-75 25.5-24.5 30-27.5 4.5 16-10 35 43.5-26 67.5-32.5 9-5.5 5 5 7.5 0 7.5-2.5 15.5-6 7.5 7.5 13.5 3.5 4 14.5 1 6-1.5 13-39.5 38-92.5 75-2.5 87.5-5 125-5 23-22.5 40-13.576 9-27.576 0-18-21-33-53 1-20-4.5-42 17.5 16 32.576-10 10-42.5 17.5-72.5h0" class="F"/>
        <path d="M402.424 564q-15-5.5-39 25.5 7.5 30 6 43 13-25 27-34 5.924-16 7.5-35.5l-1.5 1" class="G"/>
    </g>
    <path d="M361.5 618.5q-7 4-22 2" class="B C D"/>
    <g class="E">
        <path d="M50.3478 645.5q-35-12.5-47.924-31.5 17.5-130 35-142.5 0-12.5 117.5-37.5 0-5 80-5 75 17.5 127.5 30 18.924 19.5 45.424 82.5-3.5 19-8.5 20-14.5-3.5-36.5 25.5 8 18.5 5.5 53.5-10.5 28.5-45.5 38.5-6.657 7.6512 0 15-97.9042 3.129-165 7.5-60-15-66.5-21-36.2358-14.7135-41-35"/>
        <path d="M259.5 435q18 5 37 8-16 11-29 11.5m-47.5 33q0 0 0 0 0 0 0 0 7.5 7 22.5 21-16-8-37-9-18 1-33 7 13-18 20-19 0 0 0 0 4 3 12 5 10-2 15.5-5m-128.5 224q-5.076-22-6.076-33-20-8-30-24 50 43 150 23 115 12.5 154-21-11 14-30 22-1 13-5 33" fill="#d1d9e6"/>
        <path d="M40.424 642.5c18 9-5-7 13-43 1.4107-5.8502 17-30 9.5-44.5 12.5 12.5-32.5 67.5-22.5 87.5h0" fill="#c6d3e2"/>
    </g>
    <g class="B C D">
        <path d="M50.424 646.5q-29-11-47.924-31.5 15-137.5 42.5-150 25-10 112.5-32.5 92.5 2.5 95 2.5Q330 447.5 365 462.5q25.4998 39.2305 41.7654 80-1.8415 11-4.3415 20.1873-18 .8127-39 25.8127"/>
        <path d="M355 520q-7.076 12.5.424 47.5 42.5 97.5-35 112.5M55 525q15.424 27.5 5.424 57.5-39.5 85 40 100"/>
        <path d="M206.424 490.5l-1 197m125-10l-5 32.5M416 508q-21.5 85.5-23.5 122.5m25-113q-2-10-3-35-1-33 28-50 8-7 26-25 13 7-13.5 37.5.5 32.5-15 45m15 35q47.5-32.5 89.5-72.5 5.78-6.6515 6.5-17 8.5-16.5-3.5-14.5 4.5-4.5 1.5-8.5-4-1.75-8-1-4.75 1.25-6.5 2 1-8.75-9.5-3.5-48.5 22.5-69.5 36"/>
        <path d="M534.5 413.5l-51 30m64-23l-51 33m55-20l-46 30"/>
        <path d="M472.5 436.5q19 12 36 31m-15 7q-39 9-51 33m15 16q-1 67.5-5 121.5-5.5 27-25 44-17.076 8.5-29.076-6.5-20.5-29-28.5-47"/>
    </g>
    <path d="M175 422.5q-30 7.5-35 67.5 0 50 52.5-2.5" class="B C"/>
    <g class="E">
        <path d="M221 487.5758q4 .5 10 7 8.5 11.5 15 15 26 10 29-8-10-76.5-36-56-3 23-16 39l-2 3"/>
        <path d="M237 422.5758q2.5 11 2.75 23 11 1 23.75 6.5-6.5-26-26.5-29.5" fill="#d1d9e6"/>
    </g>
    <path d="M235 422.5758q10 30-15 62.5 12.5 12.5 22.5 20 30.0128 21.0074 32.5-5-10-80-40-77.5" class="B C D"/>
    <g class="E">
        <path d="M232.5433 420.5q3.2278 17 2.2278 28-26 12-59.003-17.3667 1.003-3.6333 1.003-10.6333 8.2246 2.983 20.5324 3.8667 27.4088-.2002 35.2398-3.8667" class="G"/>
        <path d="M235.771 446.5q-20 16-61-17 0 1 0 22 17 51 38 39 20-16 23-44z" class="F"/>
    </g>
    <path d="M232.771 419.5q-27 6-56-1-4 46 17 67 11 10 26 0 22-24 16-56z" class="B C D"/>
    <g class="E">
        <use xlink:href="#B"/>
        <path d="M348.5 181.5q0 0 0 0 0 0 0 0 0 0 0 0 7.1056-3.241 11-8 9.3112-11.3782 7-22-2.5-19.5-12-45-15.5 27.5-52 38.5-76.7562 16.2802-138.5 10-75.8652-7.7166-112.5-50-6 10-12 39-4 22.5 16 35.5l293 2" fill="#c6d3e2"/>
    </g>
    <g class="D">
        <use xlink:href="#B" x="1.1384" y="2" class="B C"/>
        <g stroke="#e8684a" stroke-width="10">
            <path d="M202.924 15v35"/>
            <path d="M185.424 32.5h35"/>
        </g>
    </g>
    <g class="E">
        <path d="M327.5 292.5q17.9484-65.6832 12.924-110-15-110-120-120-80 0-120 45-55 75-17.9238 185z" fill="#825851"/>
        <path d="M327.4 292.5q13.026-49.9827 14.023-83 1-20-2.5625-37-195 10-235.9375-67.5-59.5 78.5-20.523 187.5h245" fill="#3d2a26"/>
    </g>
    <g class="B D">
        <path d="M102.424 170.5q-11.75-7.5-7.5-34m35.5 16q40 37.5 182.5 30" stroke-width="4"/>
        <path d="M326.91 292q18.5393-60.1832 13.5148-104.5-15-105-97.5-120-87.5-15-140 37.5-57.5 77.5-21.015 187z" class="C"/>
    </g>
    <path d="M92.9238 345q-12.5 18.5-6.5 38.5 4 28 34 29 12.2308-.3887 25-7.5" fill="#825851" class="E"/>
    <g class="B C">
        <path d="M91.424 344.5q-9 16-8 33 .5 20.5 22.5 31.5 16.5 7 41.25-2.75" fill="#3d2a26"/>
        <path d="M82.5 277.3198q-26-20.8247-29 15.6185Q55.6667 336.02 92.5 345" class="F"/>
    </g>
    <path d="M67.5 281.52q28 18 20 50-29-4-20-50z" class="E G"/>
    <g class="B C">
        <path d="M65.5 279.52q5-2 17 17" class="D"/>
        <path d="M324.5 274.7998q26-20.8247 29 15.6185-2.1667 43.0816-39 52.0616" class="F"/>
    </g>
    <path d="M339.5 281.5q-28 18-20 50 29-4 20-50z" class="E G"/>
    <g class="B C">
        <path d="M341.5 279.5q-5-2-17 17" class="D"/>
        <path d="M95.424 162.5q-17.5 45-12.924 110 0 130 120 152.5 136-22.5 121-182.5-3.076-36-9.076-53-192.5 17.5-219-27z" class="F"/>
        <path d="M290 214.5q-20.5-19.5-44-6.5m-83.5-.5q-26-13-43 7" class="D"/>
    </g>
    <path d="M264.5 232q20 2.5 23.5 29.5 1.5 30-18 36.75-24 7.25-28-24.75-5-43 22.5-41.5z" stroke="#fff"/>
    <g class="B">
        <path d="M290 272.5q0-47.5-35-42.5-7.7523 1.7383-12.5 10" class="C D"/>
        <ellipse cx="260" cy="266.25" fill="#686868" rx="12.5" ry="26.25" stroke-width="2"/>
    </g>
    <circle cx="251.375" cy="254.125" stroke="#fff" r="4.375"/>
    <g class="E">
        <path d="M148.5 231.5q-35 4-27 45.5 2 9.5 8 16 16.5 14 30.5-.5 9-7 7-36.5-1-20.5-18.5-24.5h0"/>
        <ellipse cx="149" cy="266.5" fill="#686868" rx="12.5" ry="26"/>
    </g>
    <circle cx="143" cy="254" stroke="#fff" r="4.5"/>
    <g class="B C">
        <path d="M166.5 240.5q-8-10-19-11-30 0-30 44" class="D"/>
        <path d="M244.5 335.5q-1 25-10 43-32 49-61-3-10-26-7.5-39.25 15 4.25 31 5.25 39.5-1 47.5-6" fill="#c76f6f"/>
    </g>
    <path d="M237.5 366.6173q-2.515 8.314-6.1905 14.1086-28.889 38.2946-52.62.5038-3.6224-5.9143-6.1905-14.6124 8.7698-13.1008 28.373-15.1163 22.1826-1.5117 36.627 15.1163" fill="#ea908b" class="E"/>
    <path d="M244 333.2277q-1 25-10 43-32 49-61-3-10-26-7.5-39.25 15 4.25 31 5.25 39.5-1 47.5-6" class="B C D"/>
    <g class="E">
        <g fill="#eea49a">
            <ellipse cx="296" cy="307.5" rx="21.5" ry="10"/>
            <ellipse cx="113" cy="307.5" rx="21.5" ry="10"/>
        </g>
        <ellipse cx="205" cy="317" fill="#d0967f" rx="6.5" ry="4.5"/>
    </g>
    <path d="M272.424 230.5l4-6m-16 4v-6m-11 9l-4-5m-89 5l3-6m-16 3v-5m-12 9l-3-4.5m-43 451.5l5 30.5" class="B C D"/>
    <defs >
        <path id="B" d="M349.0213 179.5q0 0 0 0 0 0 0 0 0 0 0 0 19.77-8.2932 17-35-4.8228-46.4984-43-96-41.3792-45.5-122-48-58.04 1-98 30-49.5 40-64 114-3.5 19.5 16.5 33l293.5 2"/>
    </defs>
</svg>