<svg xmlns="http://www.w3.org/2000/svg" width="479" height="475" stroke="#000" stroke-linecap="round" stroke-linejoin="round" fill="#fff" fill-rule="evenodd"><path d="M426.0718 383.8763c-28.9754-9.5633-53 1-132.5 5-87.5-12.5-150-5-197.5 37.5-57.828 23.0568-42.5 45-85 37.5-7.5-17.5 2.5-45 15-67.5 11.9573-27.4958 52.7865-55.916 95-72.5 30-12.5 52.4624-43.3054 65-62.5 15.4675-23.68 11.61-39.5973 12.5-52.5 1.0886-15.7803-1.0015-29.5515-12.5-45-22.5-12.5-36.8772-37.0878-57.5-45-12.5 5-17.9292-4.1028-25 0-17.5 2.5-28.21 6.041-35 27.5 7.5 27.5-4.493 66.4187-22.5 77.5-7.453 13.1835-10.496-7.486-17.5-10-7.996-2.8703-19.6377 10.2034-22.5-10 0-37.5-5-62.5 10-105 10-27.5 5-25 15-55 9.575-17.4088 12.1804-33.7402 27.5-37.5 28.68-7.0386 76.8723 12.9453 122.5 32.5 21.55 1.6267 42.5 2.5 62.5 2.5 36.5766 11.626 34.208 35.8056 65 70 32.44 36.0246 76.3165 68.4875 129.9282 92.087 29.4283 36.087 33.5 82.5 35 97.5 1.5 26 7.4282 44.087-14.5 95.5-12.9192-2.0394-16.9284-3.2105-24.9282-6.087-2.3485-.8444-5.5-2.5-8-6.5" stroke="#feebdc" stroke-width="5" fill="#feebdc"/><g stroke="#686868" fill="none"><path d="M29.0717 210.8763c4.9305-7.6686 11.9595-19.7445 15-33 2.9863-13.0194 2.0344-27.212 1.3416-35.625-.9398-11.41-10.8944-5.0833-13.618-10.1667 2.7236-2.5416 9.5177 7.3994 19.065 5.0834 4.6313-1.1235 11.2113-4.2917 18.2113-7.2917 7-2 14-6 14-6 4-6-3-11-4.9753-14.6667-4.574-9.57-5.4472-5.0833-2.7236-20.3333m170.699 147.5c-14.3276-11.5255-18-19.4037-23-27.5-5.8407-9.4556-12.767-19.0395-29.5-32.5" stroke-width="10"/><path d="M266.0718 258.8763c3.75 22.7083.5 32.4167 3 42s8.5 15 12 15.5m-120-5c8.3263 9.1583 7.4708 18.568 10 24.5 3.2108 7.5305 9.43 11.3738 20 23m-105.5 16c-10.5-9-4.5-14.5-7.5-30" stroke-width="5"/><path d="M19.5718 91.8762C35.3706 79.0197 46.5826 62.95 60.8525 51.164c9.602-4.5384 25.7976-4.4 39.7518-4.2855 10.89.0816 26.4524 4.4103 33.1265 6.964 13.034 4.987 21.8306 9.85 38.223 13.9278 5.813 1.446 26.1302.027 32.617.5357 6.6253.5357 16.3084 9.1067 26.5012 20.8918m21.9998-19.3215c-7.628-10.7812-23.8372-14.8242-41-28.75h0" stroke-width="10"/><path d="M297.0718 368.8763c10 10 13 14 27 18" stroke-width="5"/><path d="M436.0717 203.8763c-60-30-127.2597-89.2613-145-115-13.5107-19.6022-18.3853-32.47-40-44-6.7666-3.6095-50.1737-2.848-61-7-24.3048-7.3972-45.4004-14.6405-67-22-19.2804-6.5693-38.7593-14.0025-64.5-9.5-9.2298 1.6144-15 7.5-20 15-4.1418 9.319-10.5153 22.0753-12.5 35-1.9184 12.4933-4.463 27.644-7.5 37.5-1.407 4.5657-8.61 18.7908-10 22.5-5.9324 24.9593-2.74 21.1526-2.5 50 2.5 15-1.8894 31.345 2.5 50 22.5-2.5 17.3495-4.993 22.5-.0001 4.0332 3.9098 6.2167 8.598 15 7.5 3.923-1.471 7.2148-4.3415 10-7 4.4638-4.2606 7.6263-9.0775 10-15 5.2827-13.1802 5.7813-29.8748 0-53 1.7337-8.9284 7.9045-13.9668 13-19 4.3102-4.2575 7.282-9.0076 12-11 7.7082-3.2553 13 .0001 27 3 12 1 13.3644-3.06 17-1 15.717 8.9 20 19 25 24 8 7 18.7703 10.6485 23 15 8.4377 8.6806 7.1858 17.5562 13 29 3.19 6.2784 2 20 2 29 0 7-1.1238 13.3406-2 18-2.1992 11.6947-7.378 18.657-13 30-7.18 14.4842-17.5177 25.697-35 42-8.451 7.88-25 14-37 21-29.0515 12.6073-51.4506 28.6306-69 48-3.1678 3.4964-8.1315 8.2932-11 12-10.231 13.2212-16 25-19 35-3 14-3.1714 41.3475 6 44 21.1136 6.1063 60-37 101-57 23-12 58.0774-25.112 87-27 22 0 44.8198 4.505 68 6 35.4404 2.286 72.355-.182 112-11" stroke-width="10"/><path d="M418.5718 291.3763c-2.5 45.5-24.094 41.593-32.5 87.5" stroke-width="5"/><path d="M386.0718 378.8763c34.5 1 34.0123 14.9606 70 17.5" stroke-width="10"/></g></svg>